<?xml version="1.0" encoding="UTF-8"?>
<svg version="1.1" viewBox="0 0 157.76 44.734" xmlns="http://www.w3.org/2000/svg" xmlnsCc="http://creativecommons.org/ns#" xmlnsDc="http://purl.org/dc/elements/1.1/" xmlnsRdf="http://www.w3.org/1999/02/22-rdf-syntax-ns#">
<metadata>
<rdfRDF>
<ccWork rdfAbout="">
<dcFormat>image/svg+xml</dcFormat>
<dcType rdfResource="http://purl.org/dc/dcmitype/StillImage"/>
<dcTitle/>
</ccWork>
</rdfRDF>
</metadata>
<g transform="translate(-21.404 -990.2)" fill="#fff" stroke-width="0">
<g transform="matrix(.25993 0 0 .25456 7.3016 916.63)">
<path d="m91.359 372.51-18.98-78.175h53.182q2.2551 0 4.5101 1.1275 2.2551 0.93961 3.9464 2.6309 1.8792 1.6913 3.1947 3.9464 1.3154 2.0671 1.8792 4.1343l3.0067 12.215-50.739 54.121zm90.954-78.175h69.719l-127.79 131.55h-58.819l116.89-131.55z"/>
<path d="m242.69 425.88 42.282-131.55h142.07q3.0068 0 5.4497 1.5034 2.6309 1.5034 4.5101 4.1343 2.0671 2.6309 3.3826 6.2014 1.3154 3.3826 2.0671 7.141 0.37584 1.8792-0.18792 5.2618-0.37585 3.1947-1.3154 7.141-0.93961 3.9464-2.443 8.4565-1.3154 4.5101-2.6309 9.0202-3.3826 10.336-7.8927 22.363l-6.7652 10.712q-1.5034 2.2551-4.3222 3.7584-2.6309 1.5034-4.698 3.0068-1.5034 0.93961-3.7584 1.1275-2.0671 0.18792-4.886 0.75169-0.56376 0.18792 0 2.0671 0.56377 1.6913 1.8792 4.698 1.3154 2.8188 3.1947 6.5773 2.0671 3.5705 4.1343 7.3289 4.886 9.0202 11.651 20.296h-60.511l-21.611-41.531h-12.027l9.3961-31.383 39.276-0.56376 8.2686-24.994h-52.054l-30.819 98.471h-61.638z"/>
<path d="m489.39 294.52 166.31-0.18792-9.9598 32.886h-106.18l-18.416 61.262q-0.37585 1.5034 0.56376 3.7584 1.1275 2.0671 2.6309 2.0671 0.9396 0 6.0135 0 5.0739 0 12.591 0 7.7048-0.18792 17.101-0.18792 9.3961-0.18792 18.98-0.18792 9.584 0 18.604 0 9.0202-0.18792 15.785-0.18792 6.9531 0 10.899 0.18792 3.9464 0 3.3826 0.18792l-9.3961 31.759h-138.87q-2.2551 0-4.886-0.75168-2.6309-0.75169-5.2618-2.0671-2.443-1.3154-4.5101-3.0068-2.0671-1.6913-3.3826-3.5705-2.6309-4.1343-4.698-9.2082-2.0671-5.0739-0.56376-9.7719l33.262-102.98zm59.195 48.86h84.377l-10.899 29.316h-84.001l10.524-29.316z"/>
</g>
<path d="m22.048 1027.8 0.85482 3.5213 2.2854-2.4377-0.13526-0.5501c-0.01692-0.062-0.04516-0.1239-0.08473-0.1865-0.03958-0.068-0.08767-0.1266-0.14412-0.1777-0.05077-0.05-0.10992-0.09-0.17758-0.1185-0.06768-0.033-0.13548-0.051-0.2032-0.051h-2.3954zm4.9517 0-5.2648 5.9253h2.6492l5.7563-5.9253h-3.1406zm11.287 0-7.4915 0.014-1.4982 4.6385c-0.04516 0.1412-0.03649 0.2875 0.02558 0.44 0.06209 0.1524 0.13243 0.2908 0.21141 0.4149 0.03957 0.056 0.0902 0.1105 0.15231 0.1609 0.06209 0.051 0.1299 0.096 0.2032 0.1352 0.079 0.04 0.15801 0.071 0.23702 0.093 0.079 0.022 0.15255 0.033 0.22027 0.033h6.2552l0.42347-1.4307c0.01692 0-0.03384-0.013-0.15232-0.013-0.11858 0-0.28229-0.014-0.49109-0.014-0.20315 0-0.44017 0-0.71104 0.014h-0.83808c-0.2878 0-0.57267 0-0.85482 0.013-0.28217 0-0.53909 0-0.77046 0.014h-0.56692-0.27115c-0.04516 0-0.0846-0.03-0.11858-0.093-0.02823-0.068-0.03649-0.124-0.02531-0.1693l0.82955-2.7597h4.7826l0.44874-1.4814zm1.3033 0c-0.14673 0-0.2906 0.051-0.43168 0.1523-0.13544 0.1014-0.24816 0.2713-0.33845 0.5082-0.01692 0.04-0.04516 0.1352-0.08473 0.2875-0.03958 0.1467-0.0902 0.3277-0.15232 0.5419-0.05649 0.2145-0.12137 0.4542-0.19466 0.7194-0.06768 0.2653-0.13837 0.5333-0.21173 0.8043-0.1693 0.6376-0.35557 1.3458-0.55873 2.1245-0.02251 0.1133-0.02546 0.2173-0.0079 0.3132 0.01692 0.096 0.05636 0.1808 0.11858 0.2541 0.06209 0.074 0.14397 0.1306 0.24553 0.1693 0.10725 0.04 0.23441 0.055 0.38113 0.051h6.052l1.5915-5.0111c0.05649-0.1185 0.08753-0.2311 0.09327-0.3384 0.0052-0.1132-0.01199-0.2117-0.0509-0.2963-0.03957-0.084-0.09859-0.1525-0.1776-0.2033-0.07341-0.051-0.16394-0.076-0.27115-0.076h-6.0015zm8.2774 0 1.3712 5.9253h2.6495l1.7523-1.9384-0.55872 1.9384h2.7342l1.8282-5.9253h-3.1403l-2.9883 3.2591-0.64309-2.7256c-0.01692-0.062-0.04516-0.1239-0.08473-0.1865-0.03958-0.068-0.0874-0.1266-0.1438-0.1777-0.05076-0.05-0.11018-0.09-0.17792-0.1185-0.06767-0.033-0.13548-0.051-0.2032-0.051h-2.3954zm14.698 0-5.2228 5.9253h2.1587l3.352-3.8007 0.30465 1.236h-0.83808l-0.05917 0.069c-0.03384 0.04-0.08207 0.093-0.1441 0.1609-0.05649 0.068-0.1239 0.1441-0.20287 0.2288-0.07341 0.084-0.14691 0.172-0.22028 0.2622-0.18622 0.2145-0.39207 0.4545-0.6178 0.7196l2.421 0.033 0.30464 1.0919h2.9033c-0.2088-0.9311-0.39763-1.769-0.56694-2.5139-0.07341-0.316-0.14401-0.6264-0.21173-0.9314-0.06767-0.3102-0.12977-0.5868-0.18612-0.8294-0.05649-0.2426-0.10459-0.4427-0.14412-0.6007-0.03957-0.1581-0.06195-0.2482-0.06767-0.271-0.03384-0.078-0.07622-0.1579-0.12697-0.2369-0.04516-0.078-0.09593-0.1554-0.15232-0.2287-0.06209-0.078-0.14397-0.1495-0.24554-0.2115-0.10152-0.069-0.20306-0.1014-0.30463-0.1014h-2.1331zm6.6022 0 3.0135 5.9339h2.5477l1.7947-5.9339h-2.1669l-1.0413 2.9541-1.1851-2.3191c-0.11858-0.2089-0.26528-0.3699-0.44021-0.4827-0.1693-0.1131-0.3045-0.1634-0.40607-0.1523h-2.1164zm13.566 0-1.9046 5.9253h2.7765l1.3883-4.4354h2.3445l-0.37226 1.1257-1.7691 0.026-0.42348 1.4138h0.54198l0.97332 1.8705h2.7257c-0.20315-0.3384-0.37819-0.6433-0.5249-0.9142-0.06208-0.1132-0.12404-0.2226-0.18614-0.3298-0.05649-0.1133-0.10432-0.2118-0.14378-0.2965-0.03959-0.09-0.06781-0.1608-0.08473-0.2113-0.01692-0.055-0.01692-0.087 0-0.093 0.0846-0.018 0.15787-0.029 0.21995-0.033 0.06768 0 0.12431-0.021 0.16938-0.051 0.06209-0.046 0.1327-0.09 0.21174-0.1353 0.08459-0.045 0.14951-0.1014 0.19466-0.1694l0.30463-0.4826c0.13544-0.361 0.25395-0.6966 0.35553-1.0072l0.11858-0.4063c0.04516-0.1354 0.08181-0.2626 0.10992-0.3812 0.02824-0.1185 0.04809-0.2252 0.05941-0.3213 0.01692-0.1014 0.01944-0.1805 0.0079-0.2369-0.02265-0.1133-0.05343-0.2202-0.09286-0.322-0.03958-0.1076-0.0902-0.2002-0.15231-0.2792-0.05649-0.078-0.12417-0.141-0.2032-0.1861-0.07341-0.046-0.15527-0.069-0.24554-0.069h-6.3994zm12.425 0-5.2228 5.9253h2.1587l3.352-3.8007 0.30465 1.236h-0.83808l-0.05917 0.069c-0.03384 0.04-0.08208 0.093-0.1441 0.1609-0.05649 0.068-0.12417 0.1441-0.2032 0.2288-0.07341 0.084-0.14658 0.172-0.21995 0.2622-0.18622 0.2145-0.39207 0.4545-0.6178 0.7196l2.4207 0.033 0.30496 1.0919h2.9033c-0.2088-0.9311-0.39764-1.769-0.56695-2.5139-0.07342-0.316-0.144-0.6264-0.21173-0.9314-0.06769-0.3102-0.12977-0.5868-0.18612-0.8294-0.0565-0.2426-0.10459-0.4427-0.14412-0.6007-0.03958-0.1581-0.06195-0.2482-0.06767-0.271-0.03384-0.078-0.07622-0.1579-0.12697-0.2369-0.04516-0.078-0.09593-0.1554-0.15232-0.2287-0.06209-0.078-0.14397-0.1495-0.24555-0.2115-0.10152-0.069-0.20307-0.1014-0.30464-0.1014h-2.1331zm6.4328 0-1.5235 4.6475c-0.0452 0.1409-0.0368 0.2874 0.0253 0.4397 0.0621 0.1524 0.13269 0.2908 0.21173 0.4151 0.0395 0.055 0.0901 0.1105 0.15232 0.1607 0.0621 0.051 0.12976 0.096 0.20319 0.1353 0.079 0.04 0.15801 0.071 0.23703 0.093 0.079 0.022 0.15221 0.033 0.21995 0.033h6.2556l0.42314-1.4307c0.0168 0-0.0339-0.013-0.15232-0.013-0.11857 0-0.28197-0.014-0.49077-0.014-0.20316 0-0.44017 0-0.71104 0.014h-0.83808c-0.2878 0-0.57299 0-0.85514 0.013-0.28217 0-0.53878 0-0.77014 0.014h-0.56724-0.27084c-0.0452 0-0.0845-0.03-0.11858-0.093-0.0282-0.068-0.0365-0.1239-0.0253-0.1693l0.82955-2.7595h4.7826l0.44844-1.4816h-7.4659zm16.242 0-7.4912 0.014-1.4982 4.6385c-0.0452 0.1412-0.0368 0.2875 0.0253 0.44 0.0621 0.1524 0.1327 0.2908 0.21175 0.4149 0.0394 0.056 0.0901 0.1105 0.1523 0.1609 0.0621 0.051 0.12991 0.096 0.20321 0.1352 0.079 0.04 0.15801 0.071 0.23701 0.093s0.15223 0.033 0.21994 0.033h6.2556l0.42314-1.4307c0.0168 0-0.0339-0.013-0.15232-0.013-0.11858 0-0.2823-0.014-0.49109-0.014-0.20317 0-0.44016 0-0.71105 0.014h-0.83809c-0.28778 0-0.57265 0-0.85481 0.013-0.28216 0-0.53877 0-0.77013 0.014h-0.56726-0.27082c-0.0452 0-0.0845-0.03-0.11844-0.093-0.0282-0.068-0.037-0.124-0.0257-0.1693l0.82955-2.7597h4.7826l0.44875-1.4814zm12.909 0-7.4915 0.014-1.4982 4.6385c-0.0452 0.1412-0.0365 0.2875 0.0256 0.44 0.0621 0.1524 0.13244 0.2908 0.21141 0.4149 0.0395 0.056 0.0905 0.1105 0.15265 0.1609 0.0621 0.051 0.1295 0.096 0.20289 0.1352 0.079 0.04 0.15799 0.071 0.23699 0.093s0.15257 0.033 0.22028 0.033h6.2556l0.42315-1.4307c0.0168 0-0.0339-0.013-0.15232-0.013-0.11859 0-0.2823-0.014-0.49111-0.014-0.20314 0-0.44015 0-0.71103 0.014h-0.83808c-0.2878 0-0.57267 0-0.85482 0.013-0.28217 0-0.53908 0-0.77045 0.014h-0.56695-0.27081c-0.0453 0-0.0845-0.03-0.11858-0.093-0.0282-0.068-0.037-0.124-0.0256-0.1693l0.82956-2.7597h4.7826l0.44877-1.4814zm1.0324 0 3.0135 5.9339h2.5481l1.7943-5.9339h-2.1669l-1.0413 2.9541-1.185-2.3191c-0.11844-0.2089-0.26529-0.3699-0.44023-0.4827-0.16928-0.1131-0.30449-0.1634-0.40606-0.1523h-2.1164zm8.6221 0-1.4982 4.5541c-0.0224 0.068-0.0338 0.1438-0.0338 0.2286-6e-3 0.084-3e-3 0.1722 8e-3 0.2626 0.0169 0.09 0.0394 0.1746 0.0677 0.2536 0.0338 0.074 0.0734 0.1354 0.11856 0.1864 0.12978 0.1352 0.28492 0.2425 0.4655 0.3215 0.18623 0.078 0.37249 0.1185 0.55871 0.1185h5.9424l1.0242-3.7075h-2.8018l-0.34731 1.3712h0.57578l-0.30463 0.9314c-0.3781 0.014-0.7195 0.017-1.0242 0.017h-0.38965c-0.12418 0-0.23978 0-0.34699-0.014-0.10151 0-0.18892-0.013-0.26229-0.017-0.0735-0.014-0.1187-0.021-0.13558-0.033-0.079-0.051-0.14388-0.1159-0.19466-0.1947-0.0452-0.084-0.0533-0.1664-0.0253-0.2455l0.88864-2.7426h4.6388l0.40641-1.295h-7.3307zm8.7803 0-1.7353 5.9253h2.4548c0.33295-1.1118 0.63483-2.1022 0.90569-2.9712 0.11285-0.3724 0.22304-0.7334 0.33027-1.0832 0.10725-0.3557 0.20291-0.6717 0.28756-0.9481 0.0845-0.2822 0.1524-0.5051 0.2032-0.6686l0.0846-0.2542s-0.0367 0.014-0.1099 0.014h-0.28789-0.40608-0.46581c-0.37246 0-0.79286 0-1.2612-0.014zm4.13 0 3.0135 5.9339h2.5477l1.7947-5.9339h-2.1669l-1.0413 2.9541-1.1851-2.3191c-0.11857-0.2089-0.26527-0.3699-0.44022-0.4827-0.1693-0.1131-0.30483-0.1634-0.40641-0.1523h-2.116zm16.122 0-7.4915 0.014-1.4982 4.6385c-0.0452 0.1412-0.0365 0.2875 0.0256 0.44 0.0621 0.1524 0.13242 0.2908 0.21141 0.4149 0.0394 0.056 0.0905 0.1105 0.15264 0.1609 0.0621 0.051 0.1295 0.096 0.20287 0.1352 0.079 0.04 0.15801 0.071 0.23702 0.093 0.079 0.022 0.15256 0.033 0.22027 0.033h6.2556l0.42314-1.4307c0.0168 0-0.0339-0.013-0.1523-0.013-0.11858 0-0.28231-0.014-0.49109-0.014-0.20317 0-0.44017 0-0.71105 0.014h-0.8381c-0.28779 0-0.57265 0-0.85481 0.013-0.28217 0-0.53909 0-0.77045 0.014h-0.56692-0.27084c-0.0452 0-0.0846-0.03-0.11858-0.093-0.0282-0.068-0.037-0.124-0.0257-0.1693l0.82956-2.7597h4.7826l0.44875-1.4814zm2.4207 0c-0.16365 0-0.33579 0.016-0.51637 0.051-0.17496 0.033-0.34128 0.093-0.49931 0.1776-0.15236 0.078-0.29079 0.1863-0.41495 0.3217-0.11844 0.1293-0.20295 0.2936-0.25375 0.4911l-0.42314 1.4135c-0.0959 0.1805-0.12162 0.3358-0.0764 0.4656 0.0452 0.1292 0.13282 0.237 0.26262 0.3218 0.12977 0.084 0.2878 0.1465 0.47402 0.186 0.19188 0.04 0.38649 0.061 0.58399 0.061h4.3339c-0.0282 0.1238-0.0561 0.2396-0.0843 0.3469-0.0283 0.095-0.0623 0.1919-0.10182 0.2877-0.0339 0.09-0.0705 0.1611-0.10991 0.2119-0.079 0.1079-0.17504 0.2003-0.2879 0.2794-0.11285 0.074-0.23685 0.1092-0.37227 0.1092h-5.2737l-0.36405 1.2016h7.4068c0.12977 0 0.26242-0.038 0.39786-0.1104 0.14109-0.078 0.27084-0.1749 0.38933-0.288 0.12417-0.1184 0.23144-0.2482 0.32172-0.3893 0.0904-0.141 0.15227-0.279 0.18613-0.4146l0.4993-1.6168c0.0395-0.1523 0.037-0.2795-8e-3 -0.3811-0.0395-0.1014-0.10725-0.1831-0.20319-0.2452-0.0902-0.068-0.20047-0.1132-0.33024-0.1355-0.12979-0.029-0.26533-0.042-0.40641-0.042h-4.3168l0.18611-0.6096c0.0677-0.1637 0.17211-0.2762 0.31319-0.3383 0.14671-0.063 0.35548-0.087 0.62635-0.075l4.6726-0.013 0.38082-1.2697h-6.9919zm-102.93 0.6605-1.4982 5.2648 1.6423 0.014 0.93952-3.2421-1.0836-2.0315zm62.606 0-1.4986 5.2648 1.6424 0.014 0.93951-3.2421-1.0833-2.0315zm21.532 0-1.4982 5.2648 1.642 0.014 0.93985-3.2421-1.0836-2.0315zm-105.49 0.2115-1.5997 5.0533h1.8199l0.52457-1.9384-0.74484-3.1149zm-6.5166 0.5501h2.3787l-0.96479 3.0812h-1.9046c-0.079 0-0.15255-0.03-0.22027-0.093-0.06208-0.063-0.07327-0.1582-0.03384-0.288l0.04236-0.1693c0.02824-0.09 0.05942-0.2001 0.09327-0.3301 0.03958-0.1353 0.08154-0.282 0.1267-0.44 0.04516-0.1581 0.09046-0.3189 0.13558-0.4827 0.10152-0.3836 0.21719-0.8099 0.34699-1.2781zm-7.5926 0.7872-0.47402 1.3206h3.7837l0.49109-1.3206h-3.8007zm79.545 0-0.47401 1.3206h3.7837l0.49111-1.3206h-3.8008zm12.909 0-0.47404 1.3206h3.7837l0.49108-1.3206h-3.8007zm38.687 0-0.47403 1.3206h3.7837l0.4911-1.3206h-3.8007z"/>
</g>
</svg>
